Coordinates
version=1
nRows=20
nColumns=34
inDegrees=yes

Units are S.I. units (second, meters, Newtons, ...)
If the header above contains a line with 'inDegrees', this indicates whether rotational values are in degrees (yes) or radians (no).

endheader
time	pelvis_tilt	pelvis_list	pelvis_rotation	pelvis_tx	pelvis_ty	pelvis_tz	hip_flexion_r	hip_adduction_r	hip_rotation_r	knee_angle_r	ankle_angle_r	subtalar_angle_r	mtp_angle_r	hip_flexion_l	hip_adduction_l	hip_rotation_l	knee_angle_l	ankle_angle_l	subtalar_angle_l	mtp_angle_l	lumbar_extension	lumbar_bending	lumbar_rotation	arm_flex_r	arm_add_r	arm_rot_r	elbow_flex_r	pro_sup_r	arm_flex_l	arm_add_l	arm_rot_l	elbow_flex_l	pro_sup_l
      3.47500000	     -8.56803716	     -8.86456629	     -0.89076826	      1.80864177	      1.17789147	     -0.61022771	     16.81276714	      4.64707818	      3.46114419	     66.05650480	     12.72996364	    -30.60899705	      0.00000000	      7.50317291	     -4.07679158	     -7.91058154	     14.78208200	     -7.74559033	    -11.83980504	      0.00000000	     -5.51417238	      3.33458693	      0.33644026	    -31.15198440	    -11.98618268	     -1.30032897	    115.54069794	     97.88450012	      1.37837977	    -13.69421149	     16.93012983	    118.54161180	     86.04847748
      3.48333330	     -8.59284729	     -8.75385102	     -0.57546192	      1.81513734	      1.17989084	     -0.61227142	     15.97315799	      4.43667304	      3.26254395	     65.53257794	     11.29845492	    -29.56690688	      0.00000000	      7.32201291	     -3.72811882	     -8.27304066	     14.56895276	     -8.38100755	    -11.53943028	      0.00000000	     -5.24186480	      3.27877328	      0.48162770	    -31.36773198	    -11.52391012	     -0.91336197	    115.30209506	     97.89285008	     -0.00774763	    -13.75209582	     17.13706855	    118.17032967	     85.98382461
      3.49166670	     -8.61641568	     -8.75366946	     -0.29962343	      1.82022054	      1.18058706	     -0.61057968	     15.13802180	      4.57129265	      3.14272998	     64.51970689	     10.88216945	    -29.18470984	      0.00000000	      7.04751845	     -3.62654894	     -8.91453188	     14.25279753	     -9.65856838	    -11.20689582	      0.00000000	     -4.82618676	      3.30687058	      0.74047361	    -31.67419183	    -10.90579853	     -0.47827805	    115.07434612	     97.90551023	     -2.04614037	    -14.07911987	     17.48644984	    117.74907701	     85.93133115
      3.50000000	     -8.53241516	     -8.68586949	     -0.20746043	      1.81841464	      1.18439776	     -0.60970292	     14.62246928	      4.68144339	      3.12334589	     63.95656787	      9.60214706	    -28.77214946	      0.00000000	      7.07658624	     -3.48907656	     -9.12624051	     14.04770817	    -11.18297040	    -10.93908679	      0.00000000	     -4.65314578	      3.19273478	      0.62144571	    -31.33280132	    -10.60833075	     -0.07546156	    114.66375284	     97.91188889	     -3.25373412	    -14.62923095	     16.93811329	    117.26998824	     85.74534952
      3.50833330	     -8.85194956	     -8.52941908	     -0.46041411	      1.81360685	      1.18506946	     -0.61113613	     14.88538946	      4.63233994	      3.42361078	     63.88560079	      6.82309045	    -29.81531445	      0.00000000	      8.03507566	     -3.16173276	     -8.58022233	     14.81631114	    -11.45551531	    -11.58598714	      0.00000000	     -4.65342617	      3.05017232	      0.08701958	    -30.15830817	    -11.01813465	      1.33075369	    114.10956219	     97.95176828	     -4.88097201	    -14.75355239	     15.45979419	    117.14076579	     85.26152813
      3.51666670	     -8.86538517	     -8.39143206	     -0.66899543	      1.81468901	      1.18696839	     -0.61112885	     14.64511139	      4.52847405	      3.69739737	     63.60908250	      6.54849879	    -29.49734419	      0.00000000	      8.47260621	     -2.78570334	     -7.97968309	     15.04403000	    -11.39087345	    -11.31960867	      0.00000000	     -4.95829276	      3.03604271	      0.62155284	    -29.92515955	    -10.92084691	      1.47245284	    114.05625075	     97.95346741	     -5.52440155	    -15.06972000	     15.35629791	    116.90965199	     85.23430007
      3.52500000	     -9.44548810	     -8.08054388	     -1.23349106	      1.81447890	      1.18494940	     -0.61047331	     15.08901274	      4.29237213	      4.23354974	     63.22286235	      5.92052084	    -28.87121757	      0.00000000	      9.32695813	     -2.33807197	     -8.00801605	     15.19347324	    -10.63278016	    -10.57580982	      0.00000000	     -4.48949945	      2.58892338	     -1.04625016	    -27.84444113	    -11.94993398	      4.25121451	    112.91885670	     98.02185785	     -9.86913201	    -15.03617395	     12.04343333	    117.69380135	     84.58623949
      3.53333330	     -9.76864990	     -7.80180005	     -1.82053744	      1.81401081	      1.18011976	     -0.60824802	     15.30034843	      4.31781529	      5.04364159	     62.99819660	      7.08720968	    -28.02263812	      0.00000000	      9.82282189	     -1.98092154	     -8.30205091	     15.10937011	    -10.82421743	    -10.71291103	      0.00000000	     -4.32409321	      2.43666440	     -0.26522737	    -27.66855684	    -11.85753670	      4.58639990	    112.90308353	     97.99623731	    -11.31314867	    -15.35310476	     11.54264508	    117.34133973	     84.57505348
      3.54166670	    -10.45978569	     -7.54338503	     -2.58476427	      1.81362112	      1.17579321	     -0.60725285	     16.08411013	      4.23208109	      5.50455806	     62.98114302	      6.64970350	    -27.29625106	      0.00000000	     10.64543839	     -1.66098666	     -8.32029701	     15.06586323	    -10.46114778	    -10.24395490	      0.00000000	     -3.62191819	      2.26601110	      0.21625485	    -27.57703354	    -11.94405034	      5.04029490	    113.05521384	     97.98755181	    -13.67089870	    -15.45458401	     10.85518918	    117.58948705	     84.64113187
      3.55000000	    -11.01763933	     -7.47353221	     -2.79003621	      1.81344263	      1.17919003	     -0.60701468	     16.28625437	      4.22020998	      5.52898479	     61.90886171	      4.67290504	    -27.58061752	      0.00000000	     11.44305977	     -1.50791866	     -8.01545408	     15.10551137	    -11.12229687	     -9.95137651	      0.00000000	     -3.16450424	      2.14865027	     -0.82768457	    -26.12600010	    -12.52860701	      6.96877403	    112.08340994	     97.88918317	    -16.77511152	    -14.89216300	      8.63886026	    118.11395552	     85.10891887
      3.55833330	    -11.14957750	     -7.47658152	     -3.15428521	      1.81543719	      1.17453319	     -0.60682572	     16.04454385	      4.26083241	      5.70891867	     61.20968026	      3.87841684	    -27.01568771	      0.00000000	     11.50160986	     -1.41581171	     -7.71614823	     14.66417110	    -11.46206791	     -9.55922442	      0.00000000	     -3.18202360	      2.36737950	     -0.13854717	    -26.02093599	    -12.36289158	      7.09111058	    111.83990326	     97.86756013	    -17.80505256	    -14.95484665	      8.53634207	    117.77722678	     85.14578055
      3.56666670	    -11.30524901	     -7.60568635	     -3.34405093	      1.82008639	      1.17519964	     -0.60605940	     15.27203800	      4.46611816	      5.73939724	     59.54234806	      3.56233226	    -27.56600141	      0.00000000	     11.18335738	     -1.46157439	     -7.76233372	     13.72378538	    -11.16099746	     -8.52318073	      0.00000000	     -2.82347100	      2.56086695	     -0.02819290	    -25.74188130	    -12.22834295	      7.33334363	    110.95696928	     97.74404329	    -19.24773704	    -14.31246450	      7.50342125	    116.53446545	     85.28956902
      3.57500000	    -11.69196931	     -7.67216683	     -3.36408185	      1.81579166	      1.16632731	     -0.60381362	     15.41444344	      4.60109135	      5.53914321	     59.26767363	      2.17280009	    -28.66216286	      0.00000000	     11.77883823	     -1.59784388	     -7.57657561	     13.97710339	    -11.04318918	     -7.97962807	      0.00000000	     -2.63105525	      2.57403555	     -0.14199032	    -25.48063317	    -12.40840252	      8.03230244	    110.56049011	     97.54302549	    -20.68360552	    -13.92130349	      6.35172608	    116.48057233	     85.58316366
      3.58333330	    -11.84752305	     -7.63154637	     -3.54269456	      1.81680485	      1.16244224	     -0.60368554	     15.34354444	      4.47590880	      5.34238122	     58.71605165	      1.39044237	    -28.39129389	      0.00000000	     11.88467182	     -1.52369752	     -7.34642833	     13.94104702	    -11.53848943	     -7.68401051	      0.00000000	     -2.80492044	      2.52228469	      0.41729409	    -25.58341724	    -12.35343370	      8.33292090	    110.23996217	     97.51232510	    -21.58513519	    -13.89485714	      6.15082934	    116.08981418	     85.63331779
      3.59166670	    -12.13160295	     -7.78840785	     -3.66139486	      1.82048144	      1.16028892	     -0.60307863	     15.14061118	      4.69768302	      5.21689890	     57.81184204	     -1.91669998	    -30.40604244	      0.00000000	     11.95047450	     -1.71222556	     -7.23510505	     13.68212088	    -12.33833764	     -7.18698169	      0.00000000	     -2.46588529	      2.49205431	     -0.12257685	    -25.00381579	    -12.71344995	      9.55621310	    109.03008859	     97.06050469	    -23.56944993	    -13.11682516	      4.37474242	    115.49517963	     86.29990456
      3.60000000	    -12.01140095	     -7.92469315	     -3.59871913	      1.81784743	      1.15749204	     -0.60274201	     14.68770770	      4.82876357	      5.02786578	     56.70114577	     -2.20546804	    -30.43024656	      0.00000000	     11.66246854	     -1.84814161	     -6.78363462	     13.32401603	    -12.43171964	     -6.80335349	      0.00000000	     -2.67855613	      2.57839878	      0.05813456	    -24.58574460	    -12.45926487	      9.68869914	    108.18005390	     96.92636823	    -24.35800888	    -12.98343998	      4.00533101	    114.26795769	     86.46239084
      3.60833330	    -11.84358885	     -7.86448768	     -3.34081033	      1.81729357	      1.14822659	     -0.60234371	     14.24083041	      4.79884155	      4.83897150	     55.89548496	     -3.14324798	    -31.17816775	      0.00000000	     11.65990688	     -1.80742773	     -6.58539632	     13.41793835	    -13.10980227	     -6.37604946	      0.00000000	     -3.07091290	      2.33235926	      0.04271917	    -23.94001099	    -12.33439033	     10.11632647	    107.43266123	     96.74024088	    -25.04933648	    -12.96678046	      3.69790869	    113.33401463	     86.78352508
      3.61666670	    -11.87964417	     -7.77478134	     -3.06380586	      1.81546124	      1.13830272	     -0.60136921	     14.03532624	      4.70789847	      4.50573328	     55.37755972	     -3.07886385	    -31.88854762	      0.00000000	     11.85930953	     -1.70040544	     -6.12303214	     13.66364210	    -12.71739843	     -6.12345202	      0.00000000	     -3.27588564	      2.08979397	      0.21514351	    -23.50985825	    -12.14069919	     10.19156845	    107.19834388	     96.66461046	    -25.82482128	    -13.23153553	      3.64869489	    112.72879305	     86.93386015
      3.62500000	    -11.76155885	     -7.50292907	     -2.83517417	      1.81831600	      1.12850175	     -0.60192146	     13.59901041	      4.20175388	      3.87925448	     54.95713734	     -4.37340627	    -32.32341527	      0.00000000	     11.66389465	     -1.37769127	     -5.77948165	     13.83468584	    -13.05105831	     -5.64187120	      0.00000000	     -3.22870761	      1.67985401	      0.35473048	    -23.06151899	    -11.96238110	     10.24278852	    106.65253771	     96.59401309	    -26.74861772	    -13.27758141	      3.68483779	    111.69935450	     87.10600212
      3.63333330	    -11.91211853	     -7.55035232	     -2.59125314	      1.81170522	      1.11937437	     -0.59997911	     13.82219494	      4.26692485	      3.33239789	     54.83318752	     -5.16863993	    -34.22042830	      0.00000000	     12.39887447	     -1.57209464	     -5.25847396	     14.96341152	    -13.72388072	     -6.12209828	      0.00000000	     -3.55594761	      1.51126845	      0.57945846	    -22.52481102	    -11.76563242	     10.36779495	    105.66831832	     96.45777527	    -27.76321483	    -13.32721360	      3.35825000	    110.98819572	     87.52119758
